<svg width="409" height="79" viewBox="0 0 409 79" fill="none" xmlns="http://www.w3.org/2000/svg">
<path d="M0.34375 50.4844C0.34375 46.4219 1.07812 42.6406 2.54688 39.1406C4.04688 35.6094 6.21875 32.5625 9.0625 30C11.9375 27.4062 15.4375 25.375 19.5625 23.9062C23.7188 22.4375 28.4531 21.7031 33.7656 21.7031C36.0781 21.7031 38.4062 21.8438 40.75 22.125C43.0938 22.4062 45.3438 22.8125 47.5 23.3438C49.6875 23.8438 51.7344 24.4531 53.6406 25.1719C55.5469 25.8594 57.2031 26.625 58.6094 27.4688L52.1875 37.9219C49.1562 36.5156 46.2812 35.4844 43.5625 34.8281C40.875 34.1719 38.1406 33.8438 35.3594 33.8438C32.1719 33.8438 29.3125 34.2656 26.7812 35.1094C24.25 35.9219 22.0938 37.0781 20.3125 38.5781C18.5625 40.0469 17.2188 41.7969 16.2812 43.8281C15.375 45.8281 14.9219 48.0156 14.9219 50.3906C14.9219 52.7656 15.4062 54.9688 16.375 57C17.375 59 18.7656 60.7344 20.5469 62.2031C22.3594 63.6406 24.5312 64.7812 27.0625 65.625C29.625 66.4375 32.4688 66.8438 35.5938 66.8438C39.0312 66.8438 42.2656 66.3594 45.2969 65.3906C48.3594 64.4219 51.2031 63.125 53.8281 61.5L60.25 71.9531C58.5938 72.9531 56.7969 73.8906 54.8594 74.7656C52.9219 75.6094 50.8438 76.3438 48.625 76.9688C46.4375 77.5938 44.125 78.0781 41.6875 78.4219C39.2812 78.7969 36.7812 78.9844 34.1875 78.9844C28.9062 78.9844 24.1719 78.2656 19.9844 76.8281C15.7969 75.3906 12.25 73.4062 9.34375 70.875C6.4375 68.3125 4.20312 65.2969 2.64062 61.8281C1.10938 58.3594 0.34375 54.5781 0.34375 50.4844ZM71.875 50.3438C71.875 46.375 72.6719 42.6562 74.2656 39.1875C75.8906 35.7188 78.1875 32.6875 81.1562 30.0938C84.1562 27.5 87.7656 25.4531 91.9844 23.9531C96.2344 22.4531 101 21.7031 106.281 21.7031C111.562 21.7031 116.312 22.4531 120.531 23.9531C124.781 25.4531 128.391 27.5 131.359 30.0938C134.359 32.6875 136.656 35.7188 138.25 39.1875C139.875 42.6562 140.688 46.375 140.688 50.3438C140.688 54.3125 139.875 58.0312 138.25 61.5C136.656 64.9688 134.359 68 131.359 70.5938C128.391 73.1875 124.781 75.2344 120.531 76.7344C116.312 78.2344 111.562 78.9844 106.281 78.9844C101 78.9844 96.2344 78.2344 91.9844 76.7344C87.7656 75.2344 84.1562 73.1875 81.1562 70.5938C78.1875 68 75.8906 64.9688 74.2656 61.5C72.6719 58.0312 71.875 54.3125 71.875 50.3438ZM86.4531 50.3438C86.4531 52.5625 86.8906 54.6719 87.7656 56.6719C88.6719 58.6406 89.9688 60.3906 91.6562 61.9219C93.375 63.4219 95.4531 64.625 97.8906 65.5312C100.359 66.4062 103.156 66.8438 106.281 66.8438C109.406 66.8438 112.188 66.4062 114.625 65.5312C117.094 64.625 119.172 63.4219 120.859 61.9219C122.578 60.3906 123.875 58.6406 124.75 56.6719C125.656 54.6719 126.109 52.5625 126.109 50.3438C126.109 48.125 125.656 46.0156 124.75 44.0156C123.875 42.0156 122.578 40.2656 120.859 38.7656C119.172 37.2344 117.094 36.0312 114.625 35.1562C112.188 34.25 109.406 33.7969 106.281 33.7969C103.156 33.7969 100.359 34.25 97.8906 35.1562C95.4531 36.0312 93.375 37.2344 91.6562 38.7656C89.9688 40.2656 88.6719 42.0156 87.7656 44.0156C86.8906 46.0156 86.4531 48.125 86.4531 50.3438ZM152.078 50.1562C152.078 46.4062 152.844 42.8281 154.375 39.4219C155.906 35.9844 158.109 32.9531 160.984 30.3281C163.859 27.7031 167.375 25.6094 171.531 24.0469C175.719 22.4844 180.469 21.7031 185.781 21.7031C191.062 21.7031 195.812 22.5 200.031 24.0938C204.281 25.6562 207.875 27.8125 210.812 30.5625C213.781 33.3125 216.047 36.5469 217.609 40.2656C219.203 43.9844 220 47.9688 220 52.2188C220 52.75 219.984 53.3281 219.953 53.9531C219.953 54.5469 219.922 55.0938 219.859 55.5938H167.547C168.141 57.25 169.094 58.7656 170.406 60.1406C171.75 61.5156 173.422 62.7031 175.422 63.7031C177.422 64.7031 179.734 65.4844 182.359 66.0469C184.984 66.5781 187.891 66.8438 191.078 66.8438C194.266 66.8438 197.438 66.5156 200.594 65.8594C203.75 65.1719 206.766 64.3125 209.641 63.2812L214.328 73.875C212.516 74.7188 210.672 75.4688 208.797 76.125C206.953 76.75 205.016 77.2812 202.984 77.7188C200.984 78.125 198.875 78.4375 196.656 78.6562C194.469 78.875 192.156 78.9844 189.719 78.9844C183.5 78.9844 178.047 78.2344 173.359 76.7344C168.672 75.2344 164.75 73.1875 161.594 70.5938C158.438 68 156.062 64.9531 154.469 61.4531C152.875 57.9531 152.078 54.1875 152.078 50.1562ZM205.281 44.7656C204.781 43.2344 204 41.8125 202.938 40.5C201.906 39.1562 200.609 38 199.047 37.0312C197.484 36.0312 195.672 35.25 193.609 34.6875C191.547 34.125 189.281 33.8438 186.812 33.8438C184.188 33.8438 181.797 34.1406 179.641 34.7344C177.484 35.3281 175.594 36.125 173.969 37.125C172.344 38.125 170.984 39.2812 169.891 40.5938C168.828 41.9062 168.047 43.2969 167.547 44.7656H205.281ZM230.688 50.5781C230.688 46.1719 231.516 42.2031 233.172 38.6719C234.828 35.1094 237.109 32.0781 240.016 29.5781C242.953 27.0469 246.422 25.1094 250.422 23.7656C254.453 22.3906 258.812 21.7031 263.5 21.7031C265.5 21.7031 267.469 21.8281 269.406 22.0781C271.375 22.3281 273.25 22.6719 275.031 23.1094C276.844 23.5469 278.531 24.0781 280.094 24.7031C281.688 25.2969 283.094 25.9531 284.312 26.6719V0.234375H298.188V78H284.312V72.7969C283.094 73.6406 281.656 74.4375 280 75.1875C278.344 75.9375 276.562 76.5938 274.656 77.1562C272.75 77.7188 270.766 78.1562 268.703 78.4688C266.672 78.8125 264.656 78.9844 262.656 78.9844C257.969 78.9844 253.656 78.2969 249.719 76.9219C245.812 75.5469 242.453 73.6094 239.641 71.1094C236.828 68.6094 234.625 65.625 233.031 62.1562C231.469 58.6562 230.688 54.7969 230.688 50.5781ZM245.266 50.5781C245.266 52.7969 245.703 54.8906 246.578 56.8594C247.484 58.8281 248.766 60.5625 250.422 62.0625C252.109 63.5312 254.125 64.7031 256.469 65.5781C258.844 66.4219 261.5 66.8438 264.438 66.8438C266.312 66.8438 268.188 66.6719 270.062 66.3281C271.938 65.9531 273.734 65.4375 275.453 64.7812C277.203 64.125 278.828 63.3281 280.328 62.3906C281.859 61.4531 283.188 60.4062 284.312 59.25V40.0781C282.906 38.9531 281.422 38 279.859 37.2188C278.297 36.4375 276.703 35.7969 275.078 35.2969C273.453 34.7969 271.812 34.4375 270.156 34.2188C268.5 33.9688 266.891 33.8438 265.328 33.8438C262.141 33.8438 259.297 34.2812 256.797 35.1562C254.328 36 252.234 37.1719 250.516 38.6719C248.828 40.1719 247.531 41.9375 246.625 43.9688C245.719 46 245.266 48.2031 245.266 50.5781ZM322.516 15.1406C321.141 15.1406 319.891 14.9531 318.766 14.5781C317.672 14.1719 316.734 13.6406 315.953 12.9844C315.172 12.2969 314.562 11.5156 314.125 10.6406C313.719 9.73438 313.516 8.78125 313.516 7.78125C313.516 6.75 313.719 5.79688 314.125 4.92188C314.562 4.01563 315.172 3.23438 315.953 2.57812C316.734 1.92188 317.672 1.40625 318.766 1.03125C319.891 0.625 321.141 0.421875 322.516 0.421875C323.922 0.421875 325.172 0.625 326.266 1.03125C327.391 1.40625 328.344 1.92188 329.125 2.57812C329.906 3.23438 330.5 4.01563 330.906 4.92188C331.344 5.79688 331.562 6.75 331.562 7.78125C331.562 8.78125 331.344 9.73438 330.906 10.6406C330.5 11.5156 329.906 12.2969 329.125 12.9844C328.344 13.6406 327.391 14.1719 326.266 14.5781C325.172 14.9531 323.922 15.1406 322.516 15.1406ZM315.578 22.6875H329.453V78H315.578V22.6875ZM344.641 60.5625C344.641 57.9062 345.219 55.4844 346.375 53.2969C347.531 51.1094 349.266 49.2344 351.578 47.6719C353.891 46.0781 356.766 44.8594 360.203 44.0156C363.672 43.1406 367.703 42.7031 372.297 42.7031C375.703 42.7031 379.281 42.9531 383.031 43.4531C386.812 43.9531 390.703 44.7188 394.703 45.75C394.547 44 394.016 42.3906 393.109 40.9219C392.203 39.4219 390.938 38.1406 389.312 37.0781C387.719 35.9844 385.781 35.1406 383.5 34.5469C381.25 33.9531 378.688 33.6562 375.812 33.6562C374.25 33.6562 372.531 33.75 370.656 33.9375C368.781 34.125 366.844 34.4062 364.844 34.7812C362.844 35.1562 360.859 35.625 358.891 36.1875C356.953 36.75 355.141 37.4219 353.453 38.2031L349.234 26.8125C351.328 26.0625 353.562 25.375 355.938 24.75C358.344 24.125 360.797 23.5938 363.297 23.1562C365.797 22.6875 368.297 22.3281 370.797 22.0781C373.297 21.8281 375.719 21.7031 378.062 21.7031C388.406 21.7031 396.094 24.3438 401.125 29.625C406.156 34.9062 408.672 43 408.672 53.9062V78H394.797V72.7969C393.359 73.6406 391.781 74.4375 390.062 75.1875C388.375 75.9375 386.531 76.5938 384.531 77.1562C382.531 77.7188 380.375 78.1562 378.062 78.4688C375.781 78.8125 373.359 78.9844 370.797 78.9844C366.484 78.9844 362.688 78.5156 359.406 77.5781C356.156 76.6406 353.438 75.3438 351.25 73.6875C349.062 72.0312 347.406 70.0938 346.281 67.875C345.188 65.625 344.641 63.1875 344.641 60.5625ZM359.266 60.0938C359.266 61 359.5 61.875 359.969 62.7188C360.438 63.5312 361.188 64.2656 362.219 64.9219C363.25 65.5469 364.562 66.0625 366.156 66.4688C367.781 66.8438 369.734 67.0312 372.016 67.0312C374.453 67.0312 376.812 66.8125 379.094 66.375C381.375 65.9375 383.5 65.3594 385.469 64.6406C387.438 63.9219 389.219 63.0938 390.812 62.1562C392.406 61.2188 393.734 60.25 394.797 59.25V56.8125C392.672 56.2188 390.562 55.7188 388.469 55.3125C386.406 54.9062 384.422 54.5938 382.516 54.375C380.641 54.125 378.859 53.9531 377.172 53.8594C375.516 53.7656 374.062 53.7188 372.812 53.7188C370.219 53.7188 368.062 53.8906 366.344 54.2344C364.625 54.5781 363.234 55.0469 362.172 55.6406C361.109 56.2031 360.359 56.875 359.922 57.6562C359.484 58.4375 359.266 59.25 359.266 60.0938Z" fill="#00FFD1"/>
<path d="M2.54688 39.1406L1.62646 38.7497L1.62478 38.7537L2.54688 39.1406ZM9.0625 30L9.73192 30.7429L9.73236 30.7425L9.0625 30ZM19.5625 23.9062L19.2293 22.9634L19.2271 22.9642L19.5625 23.9062ZM47.5 23.3438L47.2608 24.3147L47.269 24.3167L47.2772 24.3186L47.5 23.3438ZM53.6406 25.1719L53.2878 26.1076L53.2946 26.1101L53.3014 26.1126L53.6406 25.1719ZM58.6094 27.4688L59.4614 27.9922L59.9904 27.1312L59.1239 26.6113L58.6094 27.4688ZM52.1875 37.9219L51.7667 38.829L52.5738 39.2035L53.0396 38.4453L52.1875 37.9219ZM43.5625 34.8281L43.3253 35.7996L43.3279 35.8002L43.5625 34.8281ZM26.7812 35.1094L27.0869 36.0616L27.0975 36.0581L26.7812 35.1094ZM20.3125 38.5781L20.9554 39.3441L20.9566 39.343L20.3125 38.5781ZM16.2812 43.8281L15.3733 43.4091L15.3704 43.4154L16.2812 43.8281ZM16.375 57L15.4724 57.4305L15.4764 57.4389L15.4806 57.4472L16.375 57ZM20.5469 62.2031L19.9107 62.9747L19.918 62.9807L19.9255 62.9866L20.5469 62.2031ZM27.0625 65.625L26.7463 66.5737L26.7532 66.576L26.7603 66.5782L27.0625 65.625ZM45.2969 65.3906L44.9953 64.4372L44.9925 64.4381L45.2969 65.3906ZM53.8281 61.5L54.6802 60.9765L54.1549 60.1216L53.3018 60.6497L53.8281 61.5ZM60.25 71.9531L60.7669 72.8092L61.6296 72.2883L61.1021 71.4297L60.25 71.9531ZM54.8594 74.7656L55.2587 75.6825L55.271 75.677L54.8594 74.7656ZM48.625 76.9688L48.3539 76.0062L48.3503 76.0072L48.625 76.9688ZM41.6875 78.4219L41.5479 77.4317L41.5407 77.4327L41.5335 77.4338L41.6875 78.4219ZM9.34375 70.875L8.68238 71.6251L8.68697 71.6291L9.34375 70.875ZM2.64062 61.8281L1.72577 62.232L1.72886 62.2388L2.64062 61.8281ZM1.34375 50.4844C1.34375 46.5453 2.05518 42.8966 3.46897 39.5276L1.62478 38.7537C0.101071 42.3846 -0.65625 46.2985 -0.65625 50.4844H1.34375ZM3.46728 39.5316C4.91041 36.1342 6.99674 33.2076 9.73192 30.7429L8.39308 29.2571C5.44076 31.9174 3.18334 35.0845 1.62647 38.7497L3.46728 39.5316ZM9.73236 30.7425C12.4981 28.2473 15.8803 26.2788 19.8979 24.8483L19.2271 22.9642C14.9947 24.4712 11.3769 26.5652 8.39264 29.2575L9.73236 30.7425ZM19.8957 24.8491C23.9255 23.425 28.544 22.7031 33.7656 22.7031V20.7031C28.3622 20.7031 23.512 21.45 19.2293 22.9634L19.8957 24.8491ZM33.7656 22.7031C36.0375 22.7031 38.3258 22.8413 40.6309 23.1179L40.8691 21.1321C38.4867 20.8462 36.1188 20.7031 33.7656 20.7031V22.7031ZM40.6309 23.1179C42.9367 23.3946 45.1465 23.7938 47.2608 24.3147L47.7392 22.3728C45.541 21.8312 43.2508 21.4179 40.8691 21.1321L40.6309 23.1179ZM47.2772 24.3186C49.4249 24.8095 51.428 25.4063 53.2878 26.1076L53.9934 24.2362C52.0408 23.4999 49.9501 22.878 47.7228 22.3689L47.2772 24.3186ZM53.3014 26.1126C55.1603 26.783 56.7554 27.5225 58.0949 28.3262L59.1239 26.6113C57.6509 25.7275 55.9335 24.9358 53.9799 24.2312L53.3014 26.1126ZM57.7573 26.9453L51.3354 37.3984L53.0396 38.4453L59.4614 27.9922L57.7573 26.9453ZM52.6083 37.0147C49.5285 35.5859 46.5909 34.5304 43.7971 33.856L43.3279 35.8002C45.9716 36.4384 48.784 37.4453 51.7667 38.829L52.6083 37.0147ZM43.7997 33.8567C41.0342 33.1814 38.2201 32.8438 35.3594 32.8438V34.8438C38.0611 34.8438 40.7158 35.1624 43.3253 35.7996L43.7997 33.8567ZM35.3594 32.8438C32.0847 32.8438 29.1159 33.2771 26.465 34.1607L27.0975 36.0581C29.5091 35.2542 32.2591 34.8438 35.3594 34.8438V32.8438ZM26.4756 34.1572C23.8378 35.0039 21.5623 36.2183 19.6684 37.8132L20.9566 39.343C22.6252 37.9379 24.6622 36.8398 27.0869 36.0615L26.4756 34.1572ZM19.6696 37.8122C17.8093 39.3735 16.3739 41.2412 15.3733 43.4091L17.1892 44.2472C18.0636 42.3526 19.3157 40.7202 20.9554 39.3441L19.6696 37.8122ZM15.3704 43.4154C14.4007 45.5554 13.9219 47.8851 13.9219 50.3906H15.9219C15.9219 48.1462 16.3493 46.1009 17.1921 44.2409L15.3704 43.4154ZM13.9219 50.3906C13.9219 52.9061 14.436 55.2574 15.4724 57.4305L17.2776 56.5695C16.3765 54.6801 15.9219 52.6251 15.9219 50.3906H13.9219ZM15.4806 57.4472C16.5451 59.5763 18.0252 61.42 19.9107 62.9747L21.1831 61.4316C19.506 60.0488 18.2049 58.4237 17.2694 56.5528L15.4806 57.4472ZM19.9255 62.9866C21.8421 64.5067 24.1211 65.6986 26.7463 66.5737L27.3787 64.6763C24.9414 63.8639 22.8766 62.7745 21.1683 61.4196L19.9255 62.9866ZM26.7603 66.5782C29.4349 67.4263 32.3825 67.8438 35.5938 67.8438V65.8438C32.555 65.8438 29.8151 65.4487 27.3647 64.6718L26.7603 66.5782ZM35.5938 67.8438C39.1263 67.8438 42.4641 67.3458 45.6013 66.3432L44.9925 64.4381C42.0672 65.373 38.9362 65.8438 35.5938 65.8438V67.8438ZM45.5985 66.3441C48.7367 65.3514 51.6563 64.0206 54.3545 62.3503L53.3018 60.6497C50.7499 62.2294 47.9821 63.4924 44.9953 64.4372L45.5985 66.3441ZM52.9761 62.0235L59.3979 72.4766L61.1021 71.4297L54.6802 60.9765L52.9761 62.0235ZM59.7331 71.0971C58.114 72.0747 56.3526 72.994 54.4478 73.8543L55.271 75.677C57.2411 74.7872 59.0735 73.8316 60.7669 72.8092L59.7331 71.0971ZM54.4601 73.8488C52.5678 74.6729 50.5328 75.3924 48.3539 76.0062L48.8961 77.9313C51.1547 77.2951 53.276 76.5459 55.2586 75.6825L54.4601 73.8488ZM48.3503 76.0072C46.2105 76.6186 43.9434 77.0938 41.5479 77.4317L41.8271 79.4121C44.3066 79.0624 46.6645 78.5689 48.8997 77.9303L48.3503 76.0072ZM41.5335 77.4338C39.1814 77.8004 36.733 77.9844 34.1875 77.9844V79.9844C36.8295 79.9844 39.3811 79.7934 41.8415 79.4099L41.5335 77.4338ZM34.1875 77.9844C28.996 77.9844 24.3741 77.2778 20.3091 75.8823L19.6597 77.7739C23.9696 79.2535 28.8165 79.9844 34.1875 79.9844V77.9844ZM20.3091 75.8823C16.2256 74.4805 12.7961 72.5558 10.0005 70.1209L8.68697 71.6291C11.7039 74.2567 15.3681 76.3007 19.6597 77.7739L20.3091 75.8823ZM10.0051 70.1249C7.20348 67.6547 5.0554 64.7541 3.55239 61.4174L1.72886 62.2388C3.35085 65.8397 5.67152 68.9703 8.6824 71.6251L10.0051 70.1249ZM3.55545 61.4243C2.08473 58.0926 1.34375 54.4503 1.34375 50.4844H-0.65625C-0.65625 54.706 0.134023 58.6261 1.7258 62.232L3.55545 61.4243ZM74.2656 39.1875L73.36 38.7633L73.3569 38.77L74.2656 39.1875ZM81.1562 30.0938L80.5022 29.3373L80.4983 29.3407L81.1562 30.0938ZM91.9844 23.9531L91.6516 23.0101L91.6494 23.0109L91.9844 23.9531ZM120.531 23.9531L120.196 24.8953L120.198 24.8961L120.531 23.9531ZM131.359 30.0938L130.701 30.8468L130.705 30.8502L131.359 30.0938ZM138.25 39.1875L137.341 39.605L137.344 39.6117L138.25 39.1875ZM138.25 61.5L137.344 61.0758L137.341 61.0825L138.25 61.5ZM131.359 70.5938L130.705 69.8373L130.701 69.8407L131.359 70.5938ZM120.531 76.7344L120.198 75.7914L120.196 75.7922L120.531 76.7344ZM91.9844 76.7344L91.6494 77.6766L91.6516 77.6774L91.9844 76.7344ZM81.1562 70.5938L80.4983 71.3468L80.5022 71.3502L81.1562 70.5938ZM74.2656 61.5L73.3569 61.9175L73.3601 61.9242L74.2656 61.5ZM87.7656 56.6719L86.8495 57.0727L86.8533 57.0814L86.8572 57.09L87.7656 56.6719ZM91.6562 61.9219L90.9843 62.6624L90.9914 62.6689L90.9987 62.6753L91.6562 61.9219ZM97.8906 65.5312L97.5421 66.4686L97.5493 66.4712L97.5566 66.4738L97.8906 65.5312ZM114.625 65.5312L114.963 66.4725L114.97 66.47L114.625 65.5312ZM120.859 61.9219L121.524 62.6693L121.525 62.6685L120.859 61.9219ZM124.75 56.6719L123.839 56.2591L123.836 56.2657L124.75 56.6719ZM124.75 44.0156L123.834 44.4165L123.839 44.4284L124.75 44.0156ZM120.859 38.7656L120.187 39.5062L120.195 39.5127L120.202 39.519L120.859 38.7656ZM114.625 35.1562L114.277 36.0936L114.284 36.0962L114.291 36.0988L114.625 35.1562ZM97.8906 35.1562L98.2285 36.0975L98.2352 36.095L97.8906 35.1562ZM91.6562 38.7656L92.3206 39.513L92.3215 39.5123L91.6562 38.7656ZM87.7656 44.0156L86.8547 43.6029L86.8495 43.6148L87.7656 44.0156ZM72.875 50.3438C72.875 46.5133 73.6431 42.9376 75.1743 39.605L73.3569 38.77C71.7006 42.3749 70.875 46.2367 70.875 50.3438H72.875ZM75.1712 39.6117C76.7356 36.2723 78.9468 33.352 81.8142 30.8468L80.4983 29.3407C77.4282 32.023 75.0456 35.1652 73.3601 38.7633L75.1712 39.6117ZM81.8103 30.8502C84.7051 28.3474 88.2026 26.3591 92.3194 24.8953L91.6494 23.0109C87.3287 24.5472 83.6074 26.6526 80.5022 29.3373L81.8103 30.8502ZM92.3172 24.8961C96.4437 23.4397 101.094 22.7031 106.281 22.7031V20.7031C100.906 20.7031 96.0251 21.4665 91.6516 23.0101L92.3172 24.8961ZM106.281 22.7031C111.468 22.7031 116.102 23.4398 120.196 24.8953L120.866 23.0109C116.523 21.4665 111.657 20.7031 106.281 20.7031V22.7031ZM120.198 24.8961C124.346 26.3599 127.841 28.3475 130.701 30.8468L132.017 29.3407C128.941 26.6525 125.217 24.5463 120.864 23.0101L120.198 24.8961ZM130.705 30.8502C133.602 33.3542 135.81 36.2712 137.341 39.605L139.159 38.77C137.503 35.1663 135.117 32.0208 132.013 29.3373L130.705 30.8502ZM137.344 39.6117C138.905 42.9429 139.688 46.5162 139.688 50.3438H141.688C141.688 46.2338 140.845 42.3696 139.156 38.7633L137.344 39.6117ZM139.688 50.3438C139.688 54.1713 138.905 57.7446 137.344 61.0758L139.156 61.9242C140.845 58.3179 141.688 54.4537 141.688 50.3438H139.688ZM137.341 61.0825C135.81 64.4163 133.602 67.3333 130.705 69.8373L132.013 71.3502C135.117 68.6667 137.503 65.5212 139.159 61.9175L137.341 61.0825ZM130.701 69.8407C127.841 72.34 124.346 74.3276 120.198 75.7914L120.864 77.6774C125.217 76.1412 128.941 74.035 132.017 71.3468L130.701 69.8407ZM120.196 75.7922C116.102 77.2477 111.468 77.9844 106.281 77.9844V79.9844C111.657 79.9844 116.523 79.221 120.866 77.6766L120.196 75.7922ZM106.281 77.9844C101.094 77.9844 96.4437 77.2478 92.3172 75.7914L91.6516 77.6774C96.0251 79.221 100.906 79.9844 106.281 79.9844V77.9844ZM92.3194 75.7922C88.2026 74.3284 84.7051 72.3401 81.8103 69.8373L80.5022 71.3502C83.6074 74.0349 87.3287 76.1403 91.6494 77.6766L92.3194 75.7922ZM81.8142 69.8407C78.9468 67.3355 76.7356 64.4152 75.1712 61.0758L73.3601 61.9242C75.0456 65.5223 77.4282 68.6645 80.4983 71.3468L81.8142 69.8407ZM75.1743 61.0825C73.6431 57.7499 72.875 54.1742 72.875 50.3438H70.875C70.875 54.4508 71.7006 58.3126 73.3569 61.9175L75.1743 61.0825ZM85.4531 50.3438C85.4531 52.6981 85.9182 54.9442 86.8495 57.0727L88.6818 56.2711C87.863 54.3996 87.4531 52.4269 87.4531 50.3438H85.4531ZM86.8572 57.09C87.8227 59.1873 89.2023 61.0455 90.9843 62.6624L92.3282 61.1813C90.7352 59.7358 89.5211 58.094 88.674 56.2537L86.8572 57.09ZM90.9987 62.6753C92.8203 64.2651 95.007 65.526 97.5421 66.4686L98.2391 64.5939C95.8992 63.724 93.9297 62.5787 92.3138 61.1685L90.9987 62.6753ZM97.5566 66.4738C100.151 67.3934 103.064 67.8438 106.281 67.8438V65.8438C103.249 65.8438 100.568 65.4191 98.2247 64.5887L97.5566 66.4738ZM106.281 67.8438C109.498 67.8438 112.397 67.3935 114.963 66.4724L114.287 64.5901C111.978 65.419 109.314 65.8438 106.281 65.8438V67.8438ZM114.97 66.47C117.537 65.5276 119.728 64.2651 121.524 62.6693L120.195 61.1745C118.615 62.5787 116.651 63.7224 114.28 64.5925L114.97 66.47ZM121.525 62.6685C123.342 61.0493 124.727 59.1854 125.664 57.078L123.836 56.2657C123.023 58.0959 121.814 59.7319 120.194 61.1752L121.525 62.6685ZM125.661 57.0846C126.626 54.9535 127.109 52.7033 127.109 50.3438H125.109C125.109 52.4217 124.686 54.3902 123.839 56.2591L125.661 57.0846ZM127.109 50.3438C127.109 47.9842 126.626 45.734 125.661 43.6029L123.839 44.4284C124.686 46.2973 125.109 48.2658 125.109 50.3438H127.109ZM125.666 43.6148C124.729 41.4735 123.342 39.6047 121.517 38.0122L120.202 39.519C121.815 40.9265 123.021 42.5577 123.834 44.4164L125.666 43.6148ZM121.531 38.0251C119.732 36.3924 117.534 35.1264 114.959 34.2137L114.291 36.0988C116.653 36.9361 118.612 38.0763 120.187 39.5062L121.531 38.0251ZM114.973 34.2189C112.405 33.2638 109.502 32.7969 106.281 32.7969V34.7969C109.311 34.7969 111.97 35.2362 114.277 36.0936L114.973 34.2189ZM106.281 32.7969C103.06 32.7969 100.144 33.2639 97.546 34.2175L98.2352 36.095C100.575 35.2361 103.252 34.7969 106.281 34.7969V32.7969ZM97.5528 34.2151C95.0097 35.1279 92.8167 36.3925 90.991 38.019L92.3215 39.5123C93.9333 38.0763 95.8965 36.9346 98.2285 36.0974L97.5528 34.2151ZM90.9919 38.0182C89.2027 39.6086 87.8205 41.4717 86.8548 43.6029L88.6765 44.4284C89.5233 42.5596 90.7348 40.9227 92.3206 39.513L90.9919 38.0182ZM86.8495 43.6148C85.9182 45.7433 85.4531 47.9894 85.4531 50.3438H87.4531C87.4531 48.2606 87.863 46.2879 88.6818 44.4164L86.8495 43.6148ZM154.375 39.4219L155.287 39.8319L155.288 39.8288L154.375 39.4219ZM171.531 24.0469L171.182 23.11L171.179 23.1108L171.531 24.0469ZM200.031 24.0938L199.678 25.0293L199.686 25.0323L200.031 24.0938ZM210.812 30.5625L210.129 31.2925L210.133 31.2961L210.812 30.5625ZM217.609 40.2656L216.687 40.653L216.69 40.6595L217.609 40.2656ZM219.953 53.9531L218.954 53.9032L218.953 53.9281V53.9531H219.953ZM219.859 55.5938V56.5938H220.742L220.852 55.7178L219.859 55.5938ZM167.547 55.5938V54.5938H166.126L166.606 55.9312L167.547 55.5938ZM170.406 60.1406L169.683 60.8311L169.691 60.8396L170.406 60.1406ZM182.359 66.0469L182.15 67.0247L182.161 67.027L182.359 66.0469ZM200.594 65.8594L200.797 66.8385L200.807 66.8365L200.594 65.8594ZM209.641 63.2812L210.555 62.8766L210.179 62.0259L209.303 62.34L209.641 63.2812ZM214.328 73.875L214.75 74.7816L215.64 74.3675L215.243 73.4704L214.328 73.875ZM208.797 76.125L209.118 77.0721L209.127 77.0689L208.797 76.125ZM202.984 77.7188L203.183 78.6988L203.195 78.6963L202.984 77.7188ZM196.656 78.6562L196.558 77.6611L196.557 77.6612L196.656 78.6562ZM205.281 44.7656V45.7656H206.66L206.232 44.4552L205.281 44.7656ZM202.938 40.5L202.144 41.1088L202.152 41.1191L202.16 41.1292L202.938 40.5ZM199.047 37.0312L198.508 37.8735L198.514 37.8774L198.52 37.8812L199.047 37.0312ZM169.891 40.5938L169.122 39.9536L169.118 39.959L169.113 39.9646L169.891 40.5938ZM167.547 44.7656L166.6 44.4434L166.15 45.7656H167.547V44.7656ZM153.078 50.1562C153.078 46.547 153.814 43.1087 155.287 39.8319L153.463 39.0119C151.873 42.5476 151.078 46.2655 151.078 50.1562H153.078ZM155.288 39.8288C156.762 36.5215 158.882 33.602 161.659 31.0666L160.31 29.5896C157.337 32.3042 155.051 35.4473 153.462 39.015L155.288 39.8288ZM161.659 31.0666C164.427 28.5386 167.829 26.5069 171.883 24.9829L171.179 23.1108C166.921 24.7119 163.291 26.8677 160.31 29.5896L161.659 31.0666ZM171.881 24.9838C175.938 23.4701 180.566 22.7031 185.781 22.7031V20.7031C180.371 20.7031 175.5 21.4987 171.182 23.11L171.881 24.9838ZM185.781 22.7031C190.962 22.7031 195.59 23.4848 199.678 25.0292L200.385 23.1583C196.035 21.5152 191.163 20.7031 185.781 20.7031V22.7031ZM199.686 25.0323C203.826 26.5544 207.301 28.6448 210.129 31.2925L211.496 29.8325C208.449 26.9802 204.736 24.7581 200.376 23.1552L199.686 25.0323ZM210.133 31.2961C212.998 33.9496 215.18 37.066 216.687 40.653L218.531 39.8783C216.913 36.0277 214.565 32.6754 211.492 29.8289L210.133 31.2961ZM216.69 40.6595C218.228 44.2476 219 48.0972 219 52.2188H221C221 47.8403 220.178 43.7212 218.529 39.8717L216.69 40.6595ZM219 52.2188C219 52.7307 218.985 53.292 218.954 53.9032L220.952 54.0031C220.984 53.3643 221 52.7693 221 52.2188H219ZM218.953 53.9531C218.953 54.5125 218.924 55.0173 218.867 55.4697L220.852 55.7178C220.92 55.1702 220.953 54.5813 220.953 53.9531H218.953ZM219.859 54.5938H167.547V56.5938H219.859V54.5938ZM166.606 55.9312C167.25 57.7294 168.282 59.3632 169.683 60.8311L171.13 59.4501C169.906 58.1681 169.031 56.7706 168.488 55.2563L166.606 55.9312ZM169.691 60.8396C171.124 62.306 172.891 63.5557 174.975 64.5976L175.869 62.8087C173.953 61.8505 172.376 60.7253 171.121 59.4417L169.691 60.8396ZM174.975 64.5976C177.063 65.6419 179.458 66.4479 182.15 67.0247L182.569 65.0691C180.01 64.5208 177.78 63.7644 175.869 62.8087L174.975 64.5976ZM182.161 67.027C184.862 67.5737 187.836 67.8438 191.078 67.8438V65.8438C187.945 65.8438 185.107 65.5826 182.558 65.0667L182.161 67.027ZM191.078 67.8438C194.335 67.8438 197.575 67.5084 200.797 66.8384L200.39 64.8803C197.3 65.5228 194.196 65.8438 191.078 65.8438V67.8438ZM200.807 66.8365C204.003 66.1403 207.06 65.2692 209.978 64.2225L209.303 62.34C206.471 63.3558 203.497 64.2035 200.381 64.8823L200.807 66.8365ZM208.726 63.6859L213.414 74.2796L215.243 73.4704L210.555 62.8766L208.726 63.6859ZM213.906 72.9684C212.123 73.7983 210.31 74.5359 208.467 75.1811L209.127 77.0689C211.034 76.4016 212.908 75.6392 214.75 74.7816L213.906 72.9684ZM208.476 75.1779C206.671 75.7899 204.77 76.3112 202.774 76.7412L203.195 78.6963C205.261 78.2513 207.236 77.7101 209.118 77.0721L208.476 75.1779ZM202.785 76.7388C200.822 77.1376 198.746 77.4454 196.558 77.6611L196.754 79.6514C199.004 79.4296 201.147 79.1124 203.183 78.6987L202.785 76.7388ZM196.557 77.6612C194.406 77.8763 192.127 77.9844 189.719 77.9844V79.9844C192.186 79.9844 194.532 79.8737 196.756 79.6513L196.557 77.6612ZM189.719 77.9844C183.577 77.9844 178.231 77.2434 173.664 75.782L173.055 77.6868C177.863 79.2254 183.423 79.9844 189.719 79.9844V77.9844ZM173.664 75.782C169.073 74.3128 165.269 72.32 162.229 69.8212L160.959 71.3663C164.231 74.055 168.271 76.156 173.055 77.6868L173.664 75.782ZM162.229 69.8212C159.183 67.3181 156.905 64.3913 155.379 61.0387L153.559 61.8675C155.22 65.5149 157.692 68.6819 160.959 71.3663L162.229 69.8212ZM155.379 61.0387C153.847 57.6751 153.078 54.0516 153.078 50.1562H151.078C151.078 54.3234 151.903 58.2311 153.559 61.8675L155.379 61.0387ZM206.232 44.4552C205.692 42.8025 204.85 41.2735 203.715 39.8708L202.16 41.1292C203.15 42.3515 203.87 43.6663 204.331 45.076L206.232 44.4552ZM203.731 39.8912C202.62 38.4438 201.23 37.2083 199.574 36.1813L198.52 37.8812C199.989 38.7917 201.192 39.8687 202.144 41.1088L203.731 39.8912ZM199.586 36.189C197.926 35.1268 196.018 34.3079 193.872 33.7227L193.346 35.6523C195.326 36.1921 197.042 36.9357 198.508 37.8735L199.586 36.189ZM193.872 33.7227C191.712 33.1336 189.357 32.8438 186.812 32.8438V34.8438C189.206 34.8438 191.382 35.1164 193.346 35.6523L193.872 33.7227ZM186.812 32.8438C184.113 32.8438 181.631 33.149 179.375 33.7703L179.906 35.6985C181.962 35.1323 184.262 34.8438 186.812 34.8438V32.8438ZM179.375 33.7703C177.143 34.3849 175.163 35.2162 173.445 36.2733L174.493 37.9767C176.025 37.0338 177.826 36.2714 179.906 35.6985L179.375 33.7703ZM173.445 36.2733C171.738 37.3236 170.293 38.5487 169.122 39.9536L170.659 41.2339C171.676 40.0138 172.949 38.9264 174.493 37.9767L173.445 36.2733ZM169.113 39.9646C167.983 41.3605 167.141 42.8537 166.6 44.4434L168.494 45.0879C168.952 43.7401 169.673 42.452 170.668 41.2229L169.113 39.9646ZM167.547 45.7656H205.281V43.7656H167.547V45.7656ZM233.172 38.6719L234.077 39.0965L234.079 39.0935L233.172 38.6719ZM240.016 29.5781L240.668 30.3362L240.668 30.3357L240.016 29.5781ZM250.422 23.7656L250.74 24.7136L250.745 24.7121L250.422 23.7656ZM269.406 22.0781L269.278 23.0699L269.28 23.0702L269.406 22.0781ZM275.031 23.1094L274.793 24.0805L274.797 24.0815L275.031 23.1094ZM280.094 24.7031L279.722 25.6316L279.733 25.636L279.745 25.6402L280.094 24.7031ZM284.312 26.6719L283.805 27.5332L285.312 28.4226V26.6719H284.312ZM284.312 0.234375V-0.765625H283.312V0.234375H284.312ZM298.188 0.234375H299.188V-0.765625H298.188V0.234375ZM298.188 78V79H299.188V78H298.188ZM284.312 78H283.312V79H284.312V78ZM284.312 72.7969H285.312V70.8883L283.743 71.9747L284.312 72.7969ZM268.703 78.4688L268.553 77.48L268.545 77.4813L268.536 77.4828L268.703 78.4688ZM249.719 76.9219L249.387 77.8651L249.389 77.866L249.719 76.9219ZM233.031 62.1562L232.118 62.5639L232.123 62.5738L233.031 62.1562ZM246.578 56.8594L245.664 57.2655L245.67 57.2775L246.578 56.8594ZM250.422 62.0625L249.751 62.8037L249.758 62.8103L249.765 62.8168L250.422 62.0625ZM256.469 65.5781L256.119 66.515L256.126 66.5178L256.134 66.5204L256.469 65.5781ZM270.062 66.3281L270.243 67.3117L270.251 67.3103L270.259 67.3087L270.062 66.3281ZM275.453 64.7812L275.102 63.8449L275.096 63.847L275.453 64.7812ZM280.328 62.3906L279.806 61.5377L279.798 61.5426L280.328 62.3906ZM284.312 59.25L285.029 59.9474L285.312 59.6562V59.25H284.312ZM284.312 40.0781H285.312V39.5975L284.937 39.2973L284.312 40.0781ZM270.156 34.2188L270.007 35.2075L270.016 35.2089L270.025 35.2101L270.156 34.2188ZM256.797 35.1562L257.12 36.1025L257.127 36.1001L256.797 35.1562ZM250.516 38.6719L249.858 37.9184L249.851 37.9245L250.516 38.6719ZM231.688 50.5781C231.688 46.2995 232.491 42.4786 234.077 39.0965L232.267 38.2472C230.54 41.9276 229.688 46.0442 229.688 50.5781H231.688ZM234.079 39.0935C235.676 35.6567 237.872 32.7411 240.668 30.3362L239.363 28.82C236.347 31.4151 233.98 34.5621 232.265 38.2503L234.079 39.0935ZM240.668 30.3357C243.499 27.8961 246.852 26.0197 250.74 24.7136L250.103 22.8177C245.992 24.199 242.407 26.1976 239.363 28.8206L240.668 30.3357ZM250.745 24.7121C254.662 23.3759 258.911 22.7031 263.5 22.7031V20.7031C258.714 20.7031 254.244 21.4053 250.099 22.8192L250.745 24.7121ZM263.5 22.7031C265.458 22.7031 267.384 22.8255 269.278 23.0699L269.534 21.0863C267.553 20.8307 265.542 20.7031 263.5 20.7031V22.7031ZM269.28 23.0702C271.214 23.3157 273.051 23.6528 274.793 24.0805L275.27 22.1382C273.449 21.6909 271.536 21.3405 269.532 21.0861L269.28 23.0702ZM274.797 24.0815C276.567 24.5089 278.209 25.0262 279.722 25.6316L280.465 23.7746C278.854 23.1301 277.12 22.5848 275.266 22.1373L274.797 24.0815ZM279.745 25.6402C281.294 26.2174 282.645 26.8496 283.805 27.5332L284.82 25.8105C283.542 25.0566 282.081 24.3764 280.443 23.766L279.745 25.6402ZM285.312 26.6719V0.234375H283.312V26.6719H285.312ZM284.312 1.23438H298.188V-0.765625H284.312V1.23438ZM297.188 0.234375V78H299.188V0.234375H297.188ZM298.188 77H284.312V79H298.188V77ZM285.312 78V72.7969H283.312V78H285.312ZM283.743 71.9747C282.584 72.7775 281.201 73.546 279.587 74.2765L280.413 76.0985C282.112 75.329 283.604 74.5037 284.882 73.6191L283.743 71.9747ZM279.587 74.2765C277.977 75.0059 276.239 75.6465 274.373 76.1971L274.939 78.1154C276.886 77.541 278.711 76.8691 280.413 76.0985L279.587 74.2765ZM274.373 76.1971C272.513 76.7461 270.573 77.174 268.553 77.48L268.853 79.4575C270.958 79.1385 272.987 78.6914 274.939 78.1154L274.373 76.1971ZM268.536 77.4828C266.558 77.8175 264.599 77.9844 262.656 77.9844V79.9844C264.714 79.9844 266.785 79.8075 268.87 79.4547L268.536 77.4828ZM262.656 77.9844C258.067 77.9844 253.868 77.3115 250.048 75.9778L249.389 77.866C253.445 79.2823 257.87 79.9844 262.656 79.9844V77.9844ZM250.051 75.9786C246.255 74.6424 243.011 72.7674 240.305 70.362L238.976 71.8568C241.895 74.4513 245.37 76.4514 249.387 77.8651L250.051 75.9786ZM240.305 70.362C237.597 67.9552 235.477 65.0837 233.94 61.7387L232.123 62.5738C233.773 66.1663 236.059 69.2635 238.976 71.8568L240.305 70.362ZM233.944 61.7486C232.445 58.3893 231.688 54.6707 231.688 50.5781H229.688C229.688 54.9231 230.493 58.9232 232.118 62.5639L233.944 61.7486ZM244.266 50.5781C244.266 52.9325 244.731 55.165 245.664 57.2655L247.492 56.4532C246.675 54.6162 246.266 52.6612 246.266 50.5781H244.266ZM245.67 57.2775C246.634 59.3727 247.997 61.216 249.751 62.8037L251.093 61.3213C249.534 59.909 248.335 58.2836 247.487 56.4412L245.67 57.2775ZM249.765 62.8168C251.553 64.3731 253.676 65.6029 256.119 66.515L256.819 64.6413C254.574 63.8033 252.665 62.6894 251.078 61.3082L249.765 62.8168ZM256.134 66.5204C258.633 67.4081 261.404 67.8438 264.438 67.8438V65.8438C261.596 65.8438 259.055 65.4357 256.804 64.6358L256.134 66.5204ZM264.438 67.8438C266.374 67.8438 268.309 67.6662 270.243 67.3117L269.882 65.3445C268.066 65.6775 266.251 65.8438 264.438 65.8438V67.8438ZM270.259 67.3087C272.186 66.9232 274.037 66.3924 275.81 65.7155L275.096 63.847C273.432 64.4826 271.689 64.9831 269.866 65.3475L270.259 67.3087ZM275.804 65.7176C277.613 65.0392 279.298 64.2134 280.858 63.2386L279.798 61.5426C278.358 62.4429 276.793 63.2108 275.102 63.8449L275.804 65.7176ZM280.85 63.2435C282.445 62.2673 283.84 61.1696 285.029 59.9474L283.596 58.5526C282.535 59.6429 281.274 60.639 279.806 61.5378L280.85 63.2435ZM285.312 59.25V40.0781H283.312V59.25H285.312ZM284.937 39.2973C283.478 38.1296 281.934 37.138 280.307 36.3243L279.412 38.1132C280.91 38.862 282.335 39.7766 283.688 40.859L284.937 39.2973ZM280.307 36.3243C278.696 35.5191 277.051 34.8577 275.372 34.3411L274.784 36.2527C276.355 36.736 277.898 37.3559 279.412 38.1132L280.307 36.3243ZM275.372 34.3411C273.695 33.825 272 33.4535 270.287 33.2274L270.025 35.2101C271.625 35.4215 273.211 35.7688 274.784 36.2527L275.372 34.3411ZM270.306 33.23C268.603 32.973 266.944 32.8438 265.328 32.8438V34.8438C266.837 34.8438 268.397 34.9645 270.007 35.2075L270.306 33.23ZM265.328 32.8438C262.05 32.8438 259.092 33.2935 256.467 34.2124L257.127 36.1001C259.502 35.269 262.231 34.8438 265.328 34.8438V32.8438ZM256.473 34.21C253.899 35.0897 251.688 36.3217 249.858 37.9185L251.173 39.4253C252.781 38.022 254.757 36.9103 257.12 36.1025L256.473 34.21ZM249.851 37.9245C248.059 39.5174 246.677 41.3983 245.712 43.5613L247.538 44.3762C248.386 42.4767 249.597 40.8264 251.18 39.4193L249.851 37.9245ZM245.712 43.5613C244.745 45.7293 244.266 48.0724 244.266 50.5781H246.266C246.266 48.3339 246.693 46.2707 247.538 44.3762L245.712 43.5613ZM318.766 14.5781L318.417 15.5156L318.433 15.5215L318.449 15.5268L318.766 14.5781ZM315.953 12.9844L315.292 13.7351L315.301 13.7427L315.31 13.7501L315.953 12.9844ZM314.125 10.6406L313.212 11.0497L313.221 11.069L313.231 11.0878L314.125 10.6406ZM314.125 4.92188L313.224 4.48713L313.221 4.49392L313.218 4.50076L314.125 4.92188ZM318.766 1.03125L319.09 1.9772L319.098 1.97456L319.105 1.9718L318.766 1.03125ZM326.266 1.03125L325.917 1.96868L325.933 1.97458L325.949 1.97993L326.266 1.03125ZM330.906 4.92188L329.994 5.33093L330.002 5.3502L330.012 5.36909L330.906 4.92188ZM330.906 10.6406L330.006 10.2059L330.002 10.2127L329.999 10.2195L330.906 10.6406ZM329.125 12.9844L329.768 13.7501L329.777 13.7427L329.786 13.7351L329.125 12.9844ZM326.266 14.5781L326.59 15.5241L326.598 15.5214L326.605 15.5187L326.266 14.5781ZM315.578 22.6875V21.6875H314.578V22.6875H315.578ZM329.453 22.6875H330.453V21.6875H329.453V22.6875ZM329.453 78V79H330.453V78H329.453ZM315.578 78H314.578V79H315.578V78ZM322.516 14.1406C321.231 14.1406 320.09 13.9655 319.082 13.6294L318.449 15.5268C319.691 15.9407 321.05 16.1406 322.516 16.1406V14.1406ZM319.114 13.6407C318.112 13.2687 317.278 12.7914 316.596 12.2187L315.31 13.7501C316.191 14.4898 317.231 15.075 318.417 15.5156L319.114 13.6407ZM316.614 12.2337C315.923 11.6258 315.396 10.9459 315.019 10.1934L313.231 11.0878C313.729 12.0853 314.421 12.9679 315.292 13.7351L316.614 12.2337ZM315.038 10.2316C314.689 9.45489 314.516 8.64126 314.516 7.78125H312.516C312.516 8.92124 312.748 10.0139 313.212 11.0497L315.038 10.2316ZM314.516 7.78125C314.516 6.88524 314.691 6.07708 315.032 5.34299L313.218 4.50076C312.746 5.51667 312.516 6.61476 312.516 7.78125H314.516ZM315.026 5.35662C315.401 4.57945 315.922 3.91049 316.596 3.34383L315.31 1.81242C314.422 2.55826 313.724 3.4518 313.224 4.48713L315.026 5.35662ZM316.596 3.34383C317.272 2.77661 318.097 2.31754 319.09 1.9772L318.441 0.0853041C317.246 0.494962 316.197 1.06714 315.31 1.81242L316.596 3.34383ZM319.105 1.9718C320.106 1.61029 321.239 1.42188 322.516 1.42188V-0.578125C321.042 -0.578125 319.675 -0.360289 318.426 0.0906961L319.105 1.9718ZM322.516 1.42188C323.827 1.42188 324.955 1.61133 325.917 1.96868L326.614 0.0938247C325.388 -0.361332 324.017 -0.578125 322.516 -0.578125V1.42188ZM325.949 1.97993C326.974 2.32146 327.811 2.78065 328.482 3.34383L329.768 1.81242C328.876 1.0631 327.807 0.491042 326.582 0.0825667L325.949 1.97993ZM328.482 3.34383C329.151 3.90578 329.651 4.56619 329.994 5.33093L331.819 4.51282C331.349 3.46506 330.662 2.56297 329.768 1.81242L328.482 3.34383ZM330.012 5.36909C330.376 6.09771 330.562 6.89661 330.562 7.78125H332.562C332.562 6.60339 332.311 5.49604 331.801 4.47466L330.012 5.36909ZM330.562 7.78125C330.562 8.62971 330.378 9.43432 330.006 10.2059L331.807 11.0754C332.309 10.0344 332.562 8.93279 332.562 7.78125H330.562ZM329.999 10.2195C329.656 10.9591 329.15 11.6305 328.464 12.2337L329.786 13.7351C330.663 12.9633 331.344 12.0722 331.813 11.0617L329.999 10.2195ZM328.482 12.2187C327.805 12.7874 326.959 13.2645 325.926 13.6376L326.605 15.5187C327.822 15.0792 328.883 14.4938 329.768 13.7501L328.482 12.2187ZM325.941 13.6322C324.972 13.9646 323.835 14.1406 322.516 14.1406V16.1406C324.009 16.1406 325.372 15.9416 326.59 15.5241L325.941 13.6322ZM315.578 23.6875H329.453V21.6875H315.578V23.6875ZM328.453 22.6875V78H330.453V22.6875H328.453ZM329.453 77H315.578V79H329.453V77ZM316.578 78V22.6875H314.578V78H316.578ZM351.578 47.6719L352.138 48.5005L352.146 48.4953L351.578 47.6719ZM360.203 44.0156L360.442 44.9868L360.448 44.9853L360.203 44.0156ZM383.031 43.4531L382.899 44.4444L382.9 44.4445L383.031 43.4531ZM394.703 45.75L394.453 46.7183L395.825 47.072L395.699 45.6611L394.703 45.75ZM393.109 40.9219L392.253 41.439L392.258 41.447L393.109 40.9219ZM389.312 37.0781L388.747 37.9026L388.756 37.909L388.765 37.9151L389.312 37.0781ZM383.5 34.5469L383.245 35.5138L383.248 35.5146L383.5 34.5469ZM358.891 36.1875L358.616 35.226L358.612 35.2272L358.891 36.1875ZM353.453 38.2031L352.515 38.5504L352.891 39.5652L353.873 39.1106L353.453 38.2031ZM349.234 26.8125L348.897 25.8711L347.946 26.2119L348.297 27.1598L349.234 26.8125ZM355.938 24.75L355.686 23.7821L355.683 23.7829L355.938 24.75ZM363.297 23.1562L363.469 24.1414L363.481 24.1391L363.297 23.1562ZM408.672 78V79H409.672V78H408.672ZM394.797 78H393.797V79H394.797V78ZM394.797 72.7969H395.797V71.0504L394.291 71.9345L394.797 72.7969ZM390.062 75.1875L389.663 74.2709L389.656 74.2737L390.062 75.1875ZM378.062 78.4688L377.929 77.4778L377.921 77.4788L377.913 77.4799L378.062 78.4688ZM359.406 77.5781L359.129 78.539L359.132 78.5396L359.406 77.5781ZM346.281 67.875L345.382 68.3122L345.386 68.3197L345.389 68.3272L346.281 67.875ZM359.969 62.7188L359.095 63.2044L359.099 63.2115L359.103 63.2185L359.969 62.7188ZM362.219 64.9219L361.682 65.7655L361.691 65.7714L361.7 65.7771L362.219 64.9219ZM366.156 66.4688L365.909 67.4378L365.92 67.4406L365.931 67.4431L366.156 66.4688ZM394.797 59.25L395.482 59.9782L395.797 59.6821V59.25H394.797ZM394.797 56.8125H395.797V56.0536L395.066 55.8494L394.797 56.8125ZM388.469 55.3125L388.275 56.2937L388.278 56.2942L388.469 55.3125ZM382.516 54.375L382.383 55.3662L382.393 55.3674L382.402 55.3685L382.516 54.375ZM377.172 53.8594L377.115 54.8578L377.116 54.8578L377.172 53.8594ZM362.172 55.6406L362.64 56.5244L362.65 56.5191L362.66 56.5136L362.172 55.6406ZM345.641 60.5625C345.641 58.0568 346.185 55.7972 347.259 53.7642L345.491 52.8296C344.253 55.1716 343.641 57.7557 343.641 60.5625H345.641ZM347.259 53.7642C348.329 51.7396 349.944 49.9829 352.138 48.5005L351.018 46.8433C348.587 48.4858 346.733 50.4791 345.491 52.8296L347.259 53.7642ZM352.146 48.4953C354.336 46.9856 357.092 45.8089 360.442 44.9868L359.965 43.0445C356.439 43.9099 353.445 45.1706 351.011 46.8485L352.146 48.4953ZM360.448 44.9853C363.818 44.1352 367.764 43.7031 372.297 43.7031V41.7031C367.643 41.7031 363.526 42.1461 359.959 43.046L360.448 44.9853ZM372.297 43.7031C375.654 43.7031 379.188 43.9496 382.899 44.4444L383.163 42.4619C379.374 41.9567 375.752 41.7031 372.297 41.7031V43.7031ZM382.9 44.4445C386.638 44.9388 390.489 45.6963 394.453 46.7183L394.953 44.7817C390.917 43.7412 386.987 42.9675 383.162 42.4618L382.9 44.4445ZM395.699 45.6611C395.529 43.7593 394.95 42.0001 393.96 40.3968L392.258 41.447C393.082 42.7811 393.564 44.2407 393.707 45.8389L395.699 45.6611ZM393.965 40.4048C392.973 38.763 391.597 37.3768 389.86 36.2412L388.765 37.9151C390.278 38.9044 391.433 40.0807 392.253 41.439L393.965 40.4048ZM389.878 36.2536C388.171 35.0817 386.121 34.1959 383.752 33.5791L383.248 35.5146C385.441 36.0854 387.267 36.8871 388.747 37.9026L389.878 36.2536ZM383.755 33.58C381.405 32.9598 378.754 32.6562 375.812 32.6562V34.6562C378.621 34.6562 381.095 34.9464 383.245 35.5138L383.755 33.58ZM375.812 32.6562C374.211 32.6562 372.458 32.7523 370.557 32.9425L370.756 34.9325C372.604 34.7477 374.289 34.6562 375.812 34.6562V32.6562ZM370.557 32.9425C368.651 33.133 366.685 33.4185 364.659 33.7984L365.028 35.7641C367.002 35.394 368.911 35.117 370.756 34.9325L370.557 32.9425ZM364.659 33.7984C362.629 34.1791 360.614 34.655 358.616 35.226L359.165 37.149C361.104 36.595 363.059 36.1334 365.028 35.7641L364.659 33.7984ZM358.612 35.2272C356.63 35.8025 354.77 36.4916 353.033 37.2957L353.873 39.1106C355.511 38.3522 357.276 37.6975 359.169 37.1478L358.612 35.2272ZM354.391 37.8558L350.172 26.4652L348.297 27.1598L352.515 38.5504L354.391 37.8558ZM349.572 27.7539C351.636 27.0146 353.842 26.3355 356.192 25.7171L355.683 23.7829C353.283 24.4145 351.021 25.1104 348.897 25.8711L349.572 27.7539ZM356.189 25.7179C358.569 25.0998 360.995 24.5742 363.469 24.1413L363.124 22.1712C360.598 22.6133 358.119 23.1502 355.686 23.7821L356.189 25.7179ZM363.481 24.1391C365.953 23.6756 368.425 23.3203 370.896 23.0732L370.697 21.0831C368.169 21.336 365.64 21.6994 363.113 22.1734L363.481 24.1391ZM370.896 23.0732C373.366 22.8262 375.754 22.7031 378.062 22.7031V20.7031C375.683 20.7031 373.228 20.83 370.697 21.0831L370.896 23.0732ZM378.062 22.7031C388.249 22.7031 395.626 25.3025 400.401 30.3148L401.849 28.9352C396.562 23.385 388.563 20.7031 378.062 20.7031V22.7031ZM400.401 30.3148C405.184 35.3359 407.672 43.1319 407.672 53.9062H409.672C409.672 42.8681 407.128 34.4766 401.849 28.9352L400.401 30.3148ZM407.672 53.9062V78H409.672V53.9062H407.672ZM408.672 77H394.797V79H408.672V77ZM395.797 78V72.7969H393.797V78H395.797ZM394.291 71.9345C392.891 72.7558 391.349 73.5349 389.663 74.271L390.462 76.104C392.213 75.3401 393.827 74.5255 395.303 73.6593L394.291 71.9345ZM389.656 74.2737C388.018 75.0019 386.22 75.6425 384.261 76.1936L384.802 78.1189C386.843 77.545 388.732 76.8731 390.469 76.1013L389.656 74.2737ZM384.261 76.1936C382.31 76.742 380.2 77.1708 377.929 77.4778L378.196 79.4597C380.55 79.1417 382.752 78.6955 384.802 78.1189L384.261 76.1936ZM377.913 77.4799C375.687 77.8155 373.315 77.9844 370.797 77.9844V79.9844C373.404 79.9844 375.876 79.8095 378.212 79.4576L377.913 77.4799ZM370.797 77.9844C366.554 77.9844 362.853 77.5229 359.681 76.6166L359.132 78.5396C362.522 79.5084 366.415 79.9844 370.797 79.9844V77.9844ZM359.683 76.6173C356.525 75.7062 353.923 74.4574 351.854 72.8902L350.646 74.4848C352.952 76.2301 355.788 77.5751 359.129 78.5389L359.683 76.6173ZM351.854 72.8902C349.775 71.3161 348.223 69.4927 347.173 67.4228L345.389 68.3272C346.59 70.6948 348.35 72.7464 350.646 74.4848L351.854 72.8902ZM347.181 67.4378C346.156 65.3308 345.641 63.0437 345.641 60.5625H343.641C343.641 63.3313 344.219 65.9192 345.382 68.3122L347.181 67.4378ZM358.266 60.0938C358.266 61.181 358.549 62.2221 359.095 63.2044L360.843 62.2331C360.451 61.5279 360.266 60.819 360.266 60.0938H358.266ZM359.103 63.2185C359.672 64.2063 360.555 65.0482 361.682 65.7655L362.756 64.0782C361.82 63.4831 361.203 62.8562 360.835 62.219L359.103 63.2185ZM361.7 65.7771C362.84 66.4679 364.252 67.0154 365.909 67.4378L366.403 65.4997C364.873 65.1096 363.66 64.6258 362.737 64.0667L361.7 65.7771ZM365.931 67.4431C367.651 67.8401 369.684 68.0312 372.016 68.0312V66.0312C369.784 66.0312 367.911 65.8474 366.381 65.4944L365.931 67.4431ZM372.016 68.0312C374.513 68.0312 376.936 67.8071 379.282 67.3571L378.905 65.3929C376.689 65.8179 374.393 66.0312 372.016 66.0312V68.0312ZM379.282 67.3571C381.61 66.9106 383.788 66.3189 385.812 65.58L385.126 63.7013C383.212 64.3998 381.14 64.9644 378.905 65.3929L379.282 67.3571ZM385.812 65.58C387.83 64.8431 389.667 63.9902 391.32 63.0182L390.305 61.2943C388.77 62.1973 387.045 63.0006 385.126 63.7013L385.812 65.58ZM391.32 63.0182C392.961 62.0524 394.353 61.0407 395.482 59.9782L394.112 58.5218C393.115 59.4593 391.851 60.3851 390.305 61.2943L391.32 63.0182ZM395.797 59.25V56.8125H393.797V59.25H395.797ZM395.066 55.8494C392.916 55.2486 390.78 54.7424 388.659 54.3308L388.278 56.2942C390.345 56.6951 392.428 57.1889 394.528 57.7756L395.066 55.8494ZM388.662 54.3314C386.576 53.9204 384.565 53.6036 382.63 53.3815L382.402 55.3685C384.279 55.5839 386.237 55.8921 388.275 56.2936L388.662 54.3314ZM382.648 53.3838C380.75 53.1308 378.943 52.9562 377.227 52.8609L377.116 54.8578C378.775 54.95 380.531 55.1192 382.383 55.3662L382.648 53.3838ZM377.228 52.861C375.559 52.7665 374.086 52.7188 372.812 52.7188V54.7188C374.039 54.7188 375.472 54.7648 377.115 54.8578L377.228 52.861ZM372.812 52.7188C370.181 52.7188 367.954 52.8926 366.148 53.2538L366.54 55.215C368.171 54.8887 370.256 54.7188 372.812 54.7188V52.7188ZM366.148 53.2538C364.368 53.6098 362.868 54.1061 361.684 54.7677L362.66 56.5136C363.601 55.9877 364.882 55.5464 366.54 55.215L366.148 53.2538ZM361.704 54.7568C360.528 55.3793 359.608 56.17 359.049 57.1676L360.794 58.1449C361.111 57.58 361.691 57.0269 362.64 56.5244L361.704 54.7568ZM359.049 57.1676C358.534 58.0887 358.266 59.0684 358.266 60.0938H360.266C360.266 59.4316 360.435 58.7863 360.794 58.1449L359.049 57.1676Z" fill="#00FFD1"/>
</svg>
